<svg xmlns="http://www.w3.org/2000/svg" width="256" height="256"><path fill-opacity=".016" d="M0 128.004v128.004l128.25-.254 128.25-.254.254-127.75L257.008 0H0v128.004m.485.496c0 70.4.119 99.053.265 63.672.146-35.38.146-92.98 0-128C.604 29.153.485 58.1.485 128.5" fill="#1976D2" fill-rule="evenodd"/><path fill-opacity=".071" d="M37.624 1.1C20.827 5.09 4.608 21.698.996 38.604.3 41.858.042 72.847.225 131L.5 218.5l2.312 5.725c5.05 12.5 16.463 23.913 28.963 28.963L37.5 255.5h182l7.832-3.74c13.321-6.36 22.598-17.29 27.759-32.704 1.755-5.243 1.861-10.414 1.884-91.82.016-55.398-.331-86.884-.969-88-.547-.955-1.925-4.312-3.063-7.461-4.351-12.045-16.053-23.847-28.718-28.963L218.5.5 130 .34C78.933.247 39.861.569 37.624 1.1M.479 128.5C.478 176.9.6 196.846.75 172.825c.149-24.021.149-63.621 0-88C.601 60.446.479 80.1.479 128.5" fill="#1976D2" fill-rule="evenodd"/><path fill-opacity=".163" d="M38.348 1.42C20.199 5.822 4.904 21.584 1.105 39.799.349 43.423 0 71.567 0 128.839c0 91.003-.107 89.097 5.62 100.398 3.561 7.027 13.221 16.87 20.181 20.562 12.297 6.524 7.896 6.272 104.279 5.972 87.145-.27 87.438-.278 93.203-2.457 12.346-4.666 24.86-16.657 29.029-27.814 4.894-13.097 4.688-8.745 4.688-98.879 0-48.054-.382-84.739-.887-85.051-.487-.301-1.177-2.096-1.532-3.989-2.072-11.044-14.167-26.297-25.344-31.961C217.91-.12 219.966-.007 128.04.085 64.081.149 42.246.474 38.348 1.42M186.5 28.556c-1.65.849-3.713 2.47-4.585 3.601-1.07 1.388-2.994 2.162-5.918 2.381-5.167.385-8.863 2.861-11.245 7.533-1.423 2.789-1.749 6.089-1.75 17.679L163 74h-4.777c-9.354 0-15.729 8.242-13.174 17.032.554 1.907 7.203 12.018 14.775 22.468l13.766 19 26.492.266c20.313.204 26.901-.033 28.246-1.016 1.205-.881 2.986-6.594 5.695-18.266 3.798-16.366 3.942-17.632 3.959-34.784.019-19.216-.493-21.597-5.491-25.529-1.403-1.103-4.281-2.298-6.398-2.655-3.596-.608-3.883-.914-4.388-4.681C220.837 39.363 214.296 34 207.273 34c-1.742 0-3.279-.78-4.087-2.074-1.537-2.461-7.006-4.928-10.904-4.92-1.53.004-4.132.701-5.782 1.55M66.021 33.063c-1.364.573-3.248 1.738-4.188 2.588-1.425 1.29-2.3 1.35-5.291.363-7.886-2.603-17.322 2.18-19.653 9.963-1.085 3.621-1.361 3.814-6.087 4.268-5.209.501-8.862 2.615-12.168 7.044-2.504 3.353-3.406 16.675-1.69 24.942 1.504 7.245 4.615 11.099 18.806 23.295l11.25 9.67v4.845c0 8.045-.37 7.959 34.15 7.959h29.705l2.072-2.635c1.425-1.811 2.073-4.094 2.073-7.306 0-3.519 1.418-7.863 5.75-17.615L126.5 87.5V51.344l-2.882-3.778c-3.656-4.793-8.637-6.937-14.566-6.268-3.92.441-4.934.135-7.759-2.346-3.978-3.492-9.196-4.597-14.38-3.044-3.473 1.04-4.207.934-6.799-.982-3.324-2.457-10.443-3.399-14.093-1.863m123.646 4.604c-.367.366-.667 10.211-.667 21.877 0 22.822-.259 23.982-5.195 23.283-2.29-.325-2.308-.446-2.805-18.72-.438-16.096-.719-18.53-2.25-19.495-1.275-.802-2.225-.802-3.5 0-1.561.983-1.809 3.686-2.296 24.995-.3 13.141-.637 24.005-.75 24.143-.112.138-1.089.25-2.172.25-1.215 0-3.556-2.104-6.12-5.5-2.284-3.025-4.687-5.5-5.341-5.5-2.444 0-4.887 2.682-4.343 4.766.297 1.135 6.083 9.753 12.857 19.149L179.401 124h20.74c13.845 0 20.964-.361 21.412-1.086.369-.597 1.971-6.702 3.559-13.566C227.724 98.06 228 95.155 228 78.953V61.038l-2.573-.646c-4.04-1.014-4.885.838-5.427 11.903l-.5 10.205h-6l-.5-18c-.275-9.9-.864-18.562-1.309-19.25-.445-.687-1.881-1.25-3.191-1.25-1.31 0-2.746.563-3.191 1.25-.445.688-1.034 9.35-1.309 19.25l-.5 18h-6l-.27-21.422c-.174-13.745-.666-21.898-1.373-22.75-1.154-1.391-5.045-1.806-6.19-.661M67.655 43.829C66.499 45.106 66 47.481 66 51.706c0 6.842-1.434 8.904-5.487 7.887C58.25 59.025 58 58.467 58 53.981 58 48.35 55.633 45 51.655 45c-4.785 0-5.575 2.41-5.876 17.94-.237 12.192-.533 14.505-1.97 15.411-1.296.816-2.174.629-3.75-.798C38.403 76.055 38 74.479 38 69.5c0-6.939-1.691-9.5-6.272-9.5C27.567 60 26 63.3 26 72.065c0 10.438 1.898 13.502 15.693 25.334 12.375 10.615 14.013 12.516 14.913 17.317l.617 3.284H105v-3.082c0-1.695 2.7-9.533 6-17.418l6-14.336V69.305c0-10.926-.33-14.33-1.557-16.082-2.9-4.142-9.6-2.136-10.59 3.17-.521 2.793-3.44 4.356-5.603 2.999-1.189-.745-1.851-2.663-2.065-5.987-.354-5.504-2.37-8.405-5.84-8.405C87.367 45 85 48.35 85 53.981c0 4.557-.226 5.038-2.656 5.647C78.618 60.564 77 57.94 77 50.964c0-4.208-.468-6.077-1.829-7.309-2.399-2.171-5.458-2.1-7.516.174M.478 128.5c0 47.3.122 66.504.272 42.675.149-23.829.149-62.529 0-86C.6 61.704.478 81.2.478 128.5m88.126 18.766c-6.773 3.883-9.607 12.96-6.14 19.665 2.616 5.059 6.769 7.614 15.408 9.481 4.47.965 8.128 1.99 8.128 2.276 0 .286-3.713.186-8.25-.223-14.251-1.285-17.53-.567-22.705 4.972-1.939 2.076-2.539 3.961-2.858 8.972-.39 6.126-.279 6.483 3.216 10.352 4.471 4.949 9.01 6.239 21.952 6.239h9.469l.674 3.986c.382 2.264 1.873 5.27 3.451 6.96 2.035 2.178 2.778 3.997 2.778 6.8 0 5.017 2.594 9.869 6.572 12.294 2.715 1.656 5.023 1.948 15.201 1.921 9.964-.027 14.428-.595 26.309-3.346 23.376-5.412 23.187-5.1 23.189-38.397.002-25.987-.417-28.671-5.119-32.814-1.309-1.152-7.554-4.917-13.879-8.364-15.746-8.584-21.419-9.008-28.685-2.146l-2.186 2.064-17.185-6.479c-19.064-7.187-23.132-7.771-29.34-4.213m4.051 9.563c-2.148 2.373-2.108 5.475.095 7.353.963.821 9.986 4.556 20.052 8.301l18.301 6.808-.301 3.605-.302 3.604-22.599.5c-24.498.542-25.901.867-25.901 6s1.403 5.458 25.901 6l22.599.5.33 2.891c.413 3.621-1.046 4.574-7.03 4.594-5.035.016-6.966 1.666-6.05 5.168.523 1.998 2.393 2.657 8.75 3.08 3.719.248 4.022.496 4.314 3.524.235 2.443-.139 3.398-1.5 3.822-3.815 1.189-4.814 2.233-4.814 5.03v2.891l10.731.284c9.044.239 12.817-.194 24-2.754 8.535-1.954 13.715-3.64 14.519-4.725 1.781-2.404 1.781-46.237 0-48.536-1.771-2.287-23.071-13.769-25.541-13.769-1.158 0-3.546 1.744-5.477 4-1.883 2.2-4.101 4-4.93 4-.828 0-9.9-3.15-20.161-7-10.261-3.85-19.708-7-20.993-7-1.286 0-3.083.823-3.993 1.829" fill="#1976D2" fill-rule="evenodd"/><path fill-opacity=".344" d="M42.347 1.076C25.053 4.028 9.833 16.139 4.075 31.53.117 42.107-.088 47.494.211 133.003L.5 215.5l2.6 6.679c5.21 13.382 12.854 22.226 24.15 27.941 11.956 6.049 10.55 5.972 104.044 5.656l85.206-.287 5.919-2.249c15.122-5.745 26.601-17.554 30.854-31.74 3.786-12.626 3.843-14.209 3.511-96-.357-88.05-.18-85.433-6.669-98.26-5.71-11.286-14.559-18.932-27.936-24.14L215.5.5l-84-.152c-46.2-.083-86.319.244-89.153.728M183.132 30.5c-2.759 2.492-4.813 3.5-7.135 3.5-1.794 0-4.787.943-6.653 2.097-5.651 3.492-6.344 5.98-6.344 22.758V73.81l-3.75-.458c-7.74-.943-15.25 6.03-15.25 14.161 0 4.678.165 4.95 18 29.753 5.775 8.031 11.534 15.082 12.797 15.668 1.428.663 11.528 1.066 26.694 1.066 30.664 0 27.97 1.663 33.219-20.5 3.673-15.508 3.79-16.569 3.79-34.5 0-15.922-.251-18.959-1.799-21.794-2.111-3.868-7.114-7.197-10.823-7.202-2.268-.003-2.706-.524-3.238-3.854-1.094-6.844-7.086-12.15-13.719-12.15-2.228 0-4.337-1.047-7.053-3.5-3.437-3.105-4.493-3.5-9.368-3.5s-5.931.395-9.368 3.5M62.764 34.386c-2.319 1.573-3.984 2.089-4.89 1.515-2.222-1.408-9.804-1.028-13.382.67-4.264 2.023-6.377 4.409-7.946 8.972-1.157 3.365-1.619 3.701-5.491 3.99-5.368.401-11.252 4.256-13.399 8.779-2.003 4.222-2.292 20.834-.467 26.924 1.473 4.918 6.885 10.914 19.193 21.264 9.419 7.921 9.514 8.045 9.566 12.561.057 4.979 2.401 8.486 6.33 9.473 1.223.307 14.976.424 30.562.262l28.339-.296 1.911-2.361c1.24-1.533 1.91-3.921 1.91-6.81 0-3.221 1.588-8.092 5.75-17.639l5.75-13.19.313-17.717c.358-20.316-.355-23.128-6.982-27.514-3.101-2.052-5.015-2.535-9.769-2.468-4.132.059-6.29-.371-7.165-1.425-3.167-3.816-13.915-5.918-17.771-3.475-.906.574-2.571.058-4.89-1.515C77.642 32.625 75.353 32 71.5 32c-3.853 0-6.142.625-8.736 2.386M190.2 38.2c-.858.858-1.2 7.222-1.2 22.3 0 21.772-.304 23.5-4.129 23.5C180.52 84 180 81.806 180 63.464c0-16.162-.137-17.467-1.931-18.427-1.457-.78-2.315-.648-3.5.536-1.334 1.335-1.569 4.989-1.569 24.376 0 18.117-.282 23.04-1.373 23.946-2.081 1.726-4.223.406-8.102-4.993-3.768-5.245-6.717-6.28-8.485-2.976-.871 1.626.925 4.661 11.533 19.5L179.138 123H221.533l3.256-14.75c2.92-13.229 3.254-16.369 3.233-30.45-.019-13.809-.23-15.817-1.746-16.666-1.094-.612-2.374-.617-3.5-.014-1.508.807-1.776 2.369-1.776 10.344C221 81.306 219.953 84 216.129 84 212.384 84 212 82.134 212 63.922c0-14.909-.248-17.883-1.584-18.992-1.148-.952-2.042-1.025-3.25-.265-1.424.897-1.739 3.708-2.166 19.335-.428 15.656-.741 18.437-2.172 19.339-1.188.748-2.419.713-4.25-.122L196 82.043V60.721C196 39.522 195.628 37 192.5 37c-.605 0-1.64.54-2.3 1.2M67.309 44.25c-.445.688-1.034 4.4-1.309 8.25-.485 6.79-.584 7.01-3.31 7.322-4.138.475-5.69-1.365-5.69-6.744C57 47.772 55.748 46 52 46c-4.553 0-5 1.411-5 15.766 0 7.351-.466 14.236-1.035 15.3-.584 1.09-2.086 1.934-3.443 1.934C38.809 79 37 75.481 37 68.256c0-5.72-.226-6.402-2.459-7.419-1.969-.898-2.965-.789-5 .544C27.13 62.961 27 63.509 27 72.073c0 5.846.501 9.995 1.421 11.775.782 1.512 6.901 7.452 13.598 13.2C54.379 107.657 57 110.877 57 115.45V118h46.744l.639-3.991c.35-2.194 3.108-9.654 6.127-16.577L116 84.845V69.446c0-15.21-.03-15.42-2.433-16.994-3.199-2.096-6.049-.626-8.045 4.149-1.315 3.147-1.829 3.495-4.748 3.214-3.207-.309-3.287-.435-3.904-6.182-.666-6.195-1.752-7.593-5.92-7.618C87.269 45.993 86 47.784 86 53c0 5.263-1.263 7-5.093 7C77.699 60 77 58.542 77 51.852 77 45.038 75.739 43 71.524 43c-1.873 0-3.77.563-4.215 1.25M.477 128.5c0 45.1.123 63.404.273 40.675.15-22.728.15-59.628 0-82C.6 64.804.477 83.4.477 128.5m89.982 17.38c-9.007 4.091-12.414 12.648-8.302 20.846 2.877 5.734 5.901 8.017 12.926 9.756l5.417 1.341-8.042-.538c-6.876-.46-8.64-.233-12.166 1.566-10.962 5.592-12.371 19.406-2.73 26.767 3.632 2.774 4.252 2.894 16.485 3.209l12.71.327.541 4.035c.325 2.42 1.574 5.112 3.122 6.727 1.886 1.969 2.58 3.759 2.58 6.654 0 2.179.835 5.518 1.855 7.421 4.897 9.131 18.755 10.486 45.638 4.464 9.496-2.128 16.968-4.359 18.682-5.579 5.59-3.981 5.825-5.36 5.825-34.178 0-32.493 1.185-29.823-18-40.566-11.853-6.637-14.128-7.564-18.647-7.596-4.376-.031-5.775.468-9.334 3.328l-4.186 3.364-17.895-6.614c-9.842-3.638-18.917-6.604-20.167-6.592-1.249.012-4.09.848-6.312 1.858m3.291 10.2c-2.077 1.21-2.345 6.181-.42 7.779.732.607 9.133 4.046 18.67 7.641 9.537 3.595 17.938 7.034 18.67 7.641 1.657 1.375 1.736 6.053.13 7.659-.861.861-7.454 1.2-23.345 1.2-20.184 0-22.292.162-23.8 1.829-2.151 2.377-2.095 4.462.174 6.516 1.585 1.434 4.759 1.655 23.8 1.655 23.064 0 24.371.241 24.371 4.5 0 3.232-1.972 4.5-7 4.5-4.869 0-7 1.268-7 4.165 0 2.447 3.047 3.835 8.415 3.835 4.015 0 4.62.292 5.174 2.498.911 3.632-.143 5.463-3.536 6.141-3.355.671-4.88 3.66-3.013 5.909 2.171 2.616 16.856 1.866 32.581-1.664 7.633-1.714 14.442-3.569 15.129-4.123.937-.754 1.25-6.982 1.25-24.871v-23.865l-3.75-2.33C163.707 168.63 149.236 161 148.069 161c-.618 0-3.082 2.103-5.477 4.674l-4.353 4.673-20.437-7.673c-11.24-4.221-20.857-7.66-21.37-7.644-.512.017-1.719.489-2.682 1.05" fill="#1976D2" fill-rule="evenodd"/></svg>